<?xml version="1.0" encoding="UTF-8" standalone="no"?><!-- Generator: Gravit.io --><svg xmlns="http://www.w3.org/2000/svg" xmlns:xlink="http://www.w3.org/1999/xlink" style="isolation:isolate" viewBox="0 0 800 580" width="800pt" height="580pt"><defs><clipPath id="_clipPath_FL1KNlhaXVWdnK2UbmnOB57aDelYGAX5"><rect width="800" height="580"/></clipPath></defs><g clip-path="url(#_clipPath_FL1KNlhaXVWdnK2UbmnOB57aDelYGAX5)"><radialGradient id="_rgradient_0" fx="50%" fy="50%" cx="50%" cy="50%" r="50%"><stop offset="7.5%" style="stop-color:#1C1B1B"/><stop offset="66.25%" style="stop-color:#1C1B1B"/></radialGradient><rect width="800" height="580" style="fill:url(#_rgradient_0);"/><g><g><g><g clip-path="url(#_clipPath_chmY6Ez8dDl7zNLR465kzDehbONk0YSn)"><text transform="matrix(1,0,0,1,68.443,206.824)" style="font-family:'Atma';font-weight:400;font-size:56px;font-style:normal;fill:#ffffff;stroke:none;">আমি </text><text transform="matrix(1,0,0,1,167.859,206.824)" style="font-family:'Atma';font-weight:400;font-size:56px;font-style:normal;fill:#ea0404;stroke:none;">Programming</text></g><defs><clipPath id="_clipPath_chmY6Ez8dDl7zNLR465kzDehbONk0YSn"><rect x="0" y="0" width="404" height="83" transform="matrix(1,0,0,1,60.315,149)"/></clipPath></defs><g clip-path="url(#_clipPath_4wLnhxWcAEnyCtEKO0xr1JL8Y4joeLUR)"><text transform="matrix(0.933,0,0,0.933,477.363,212.427)" style="font-family:'Atma';font-weight:400;font-size:40px;font-style:normal;fill:#fdfdfd;stroke:none;">করতে চাই কারন</text></g><defs><clipPath id="_clipPath_4wLnhxWcAEnyCtEKO0xr1JL8Y4joeLUR"><rect x="0" y="0" width="235.858" height="65.288" transform="matrix(0.933,0,0,0.933,464.315,171.102)"/></clipPath></defs><g clip-path="url(#_clipPath_otkKa4FWXHSsXKvbFJkjZGIKNd2ZUQB6)"><text transform="matrix(1,0,0,1,671.739,212.879)" style="font-family:'Atma';font-weight:400;font-size:32px;font-style:normal;fill:#ea0404;stroke:none;">,</text></g><defs><clipPath id="_clipPath_otkKa4FWXHSsXKvbFJkjZGIKNd2ZUQB6"><rect x="0" y="0" width="37.297" height="40.551" transform="matrix(1,0,0,1,656.315,183.275)"/></clipPath></defs></g><g clip-path="url(#_clipPath_tq6hWTPbeSurNFbohp14l5S2RwF5PqIP)"><text transform="matrix(1,0,0,1,216.775,402.077)" style="font-family:'Atma';font-weight:400;font-size:40px;font-style:normal;fill:#fdfdfd;stroke:none;">আমার ভূবিষ্যতে এটা </text><text transform="matrix(1,0,0,1,490.095,402.077)" style="font-family:'Atma';font-weight:400;font-size:40px;font-style:normal;fill:#ea0404;stroke:none;">পেশা </text><text transform="matrix(1,0,0,1,561.535,402.077)" style="font-family:'Atma';font-weight:400;font-size:40px;font-style:normal;fill:#fdfdfd;stroke:none;">হিসাব  চাই</text><text transform="matrix(1,0,0,1,696.415,402.077)" style="font-family:'Atma';font-weight:400;font-size:40px;font-style:normal;fill:#ececec;stroke:none;">।</text></g><defs><clipPath id="_clipPath_tq6hWTPbeSurNFbohp14l5S2RwF5PqIP"><rect x="0" y="0" width="552" height="87.165" transform="matrix(1,0,0,1,193.315,346.835)"/></clipPath></defs><g><g clip-path="url(#_clipPath_sbOHfVK7hIXAhCW5FkczFPPyYQ2bgI3n)"><text transform="matrix(1,0,0,1,294.93,331.797)" style="font-family:'Atma';font-weight:400;font-size:28px;font-style:normal;fill:#fdfdfd;stroke:none;">এটা খুব </text></g><defs><clipPath id="_clipPath_sbOHfVK7hIXAhCW5FkczFPPyYQ2bgI3n"><rect x="0" y="0" width="87.631" height="48.215" transform="matrix(1,0,0,1,294.93,300.969)"/></clipPath></defs><g clip-path="url(#_clipPath_jzyfiU11Rps2Xw1gPiA5G1hSszhgBRfD)"><text transform="matrix(1,0,0,1,125.672,282.391)" style="font-family:'Atma';font-weight:400;font-size:31px;font-style:normal;fill:#ea0404;stroke:none;">ছো ট </text><text transform="matrix(1,0,0,1,183.204,282.391)" style="font-family:'Atma';font-weight:400;font-size:31px;font-style:normal;fill:#fdfdfd;stroke:none;">বেলা থেকেই অনেক</text></g><defs><clipPath id="_clipPath_jzyfiU11Rps2Xw1gPiA5G1hSszhgBRfD"><rect x="0" y="0" width="279.246" height="55.229" transform="matrix(1,0,0,1,103.315,245.74)"/></clipPath></defs><g clip-path="url(#_clipPath_eUlJ9i317SZafGHDhnxMfNxAn1J2EO3y)"><text transform="matrix(1,0,0,1,669.405,314.062)" style="font-family:'Atma';font-weight:400;font-size:32px;font-style:normal;fill:#fdfdfd;stroke:none;">লাগে </text></g><defs><clipPath id="_clipPath_eUlJ9i317SZafGHDhnxMfNxAn1J2EO3y"><rect x="0" y="0" width="57" height="54.34" transform="matrix(1,0,0,1,669.245,278.83)"/></clipPath></defs><g clip-path="url(#_clipPath_zBRT6sHW5busMPhfsXrrGVmJMCkcdXHH)"><text transform="matrix(1,0,0,1,384.483,344.13)" style="font-family:'Hind Siliguri';font-weight:400;font-size:124px;font-style:normal;letter-spacing:-10;fill:#ea0404;stroke:none;">ভা লো</text></g><defs><clipPath id="_clipPath_zBRT6sHW5busMPhfsXrrGVmJMCkcdXHH"><rect x="0" y="0" width="317.5" height="120.52" transform="matrix(1,0,0,1,351.745,245.74)"/></clipPath></defs></g></g><g clip-path="url(#_clipPath_V5RnVF3pRHhuGg3rtk7vfiY5Z1bzP0hr)"><text transform="matrix(0.731,0,0,1.074,33.771,213.227)" style="font-family:'Atma';font-weight:400;font-size:79px;font-style:normal;fill:#ffffff;stroke:none;">{</text></g><defs><clipPath id="_clipPath_V5RnVF3pRHhuGg3rtk7vfiY5Z1bzP0hr"><rect x="0" y="0" width="109.975" height="139.698" transform="matrix(0.731,0,0,1.074,2.815,113.5)"/></clipPath></defs><g clip-path="url(#_clipPath_0hImJt99t4ewNZaeCnvFE4Y3ajX0j2mm)"><text transform="matrix(0.589,0,0,0.589,720.481,402.289)" style="font-family:'Atma';font-weight:400;font-size:263px;font-style:normal;fill:#ea0404;stroke:none;">}</text></g><defs><clipPath id="_clipPath_0hImJt99t4ewNZaeCnvFE4Y3ajX0j2mm"><rect x="0" y="0" width="176.115" height="371.344" transform="matrix(0.589,0,0,0.589,693.445,247.759)"/></clipPath></defs></g></g></svg>